<svg width="62" height="17" viewBox="0 0 62 17" fill="none" xmlns="http://www.w3.org/2000/svg">
<path d="M26.8952 7.59737V13.2754C26.8952 14.4242 26.6101 15.2714 26.0398 15.8168C25.4695 16.3706 24.6182 16.6475 23.4859 16.6475C22.8661 16.6475 22.2751 16.5607 21.7131 16.3871C21.1511 16.2218 20.6965 15.9821 20.3494 15.6681L20.9197 14.7507C21.2255 15.0151 21.6015 15.2218 22.0478 15.3705C22.5024 15.5276 22.9694 15.6061 23.4487 15.6061C24.2174 15.6061 24.7835 15.4243 25.1472 15.0606C25.5191 14.6969 25.7051 14.1432 25.7051 13.3994V12.8787C25.4241 13.2175 25.0769 13.4737 24.6637 13.6473C24.2587 13.8126 23.8165 13.8952 23.3372 13.8952C22.709 13.8952 22.1387 13.763 21.6263 13.4985C21.1222 13.2258 20.7254 12.8497 20.4362 12.3704C20.1469 11.8827 20.0023 11.329 20.0023 10.7091C20.0023 10.0892 20.1469 9.53963 20.4362 9.06026C20.7254 8.57263 21.1222 8.19657 21.6263 7.9321C22.1387 7.66762 22.709 7.53538 23.3372 7.53538C23.8331 7.53538 24.2918 7.62629 24.7133 7.80812C25.1431 7.98995 25.4943 8.25856 25.7671 8.61395V7.59737H26.8952ZM23.4735 12.8539C23.9033 12.8539 24.2876 12.763 24.6265 12.5811C24.9736 12.3993 25.2422 12.1472 25.4323 11.8249C25.6307 11.4943 25.7299 11.1224 25.7299 10.7091C25.7299 10.0727 25.5191 9.56029 25.0976 9.17184C24.6761 8.77512 24.1347 8.57676 23.4735 8.57676C22.8041 8.57676 22.2586 8.77512 21.8371 9.17184C21.4156 9.56029 21.2048 10.0727 21.2048 10.7091C21.2048 11.1224 21.2999 11.4943 21.4899 11.8249C21.6883 12.1472 21.9569 12.3993 22.2958 12.5811C22.6429 12.763 23.0355 12.8539 23.4735 12.8539Z" fill="#ff8a00"/>
<path d="M29.2932 4.96912H30.4834V14.168H29.2932V4.96912Z" fill="#ff8a00"/>
<path d="M35.694 14.2424C35.0411 14.2424 34.4542 14.0977 33.9336 13.8085C33.4129 13.5192 33.0037 13.1225 32.7062 12.6183C32.4169 12.1059 32.2723 11.5273 32.2723 10.8827C32.2723 10.238 32.4169 9.6636 32.7062 9.15944C33.0037 8.64701 33.4129 8.2503 33.9336 7.96929C34.4542 7.68002 35.0411 7.53538 35.694 7.53538C36.3469 7.53538 36.9296 7.68002 37.442 7.96929C37.9627 8.2503 38.3677 8.64701 38.657 9.15944C38.9545 9.6636 39.1033 10.238 39.1033 10.8827C39.1033 11.5273 38.9545 12.1059 38.657 12.6183C38.3677 13.1225 37.9627 13.5192 37.442 13.8085C36.9296 14.0977 36.3469 14.2424 35.694 14.2424ZM35.694 13.201C36.1155 13.201 36.4916 13.1059 36.8221 12.9159C37.161 12.7175 37.4255 12.4448 37.6156 12.0976C37.8057 11.7422 37.9007 11.3373 37.9007 10.8827C37.9007 10.4281 37.8057 10.0273 37.6156 9.68013C37.4255 9.32474 37.161 9.052 36.8221 8.8619C36.4916 8.67181 36.1155 8.57676 35.694 8.57676C35.2725 8.57676 34.8923 8.67181 34.5534 8.8619C34.2228 9.052 33.9583 9.32474 33.76 9.68013C33.5699 10.0273 33.4748 10.4281 33.4748 10.8827C33.4748 11.3373 33.5699 11.7422 33.76 12.0976C33.9583 12.4448 34.2228 12.7175 34.5534 12.9159C34.8923 13.1059 35.2725 13.201 35.694 13.201Z" fill="#ff8a00"/>
<path d="M46.8116 10.9199C46.8116 11.0108 46.8033 11.1306 46.7868 11.2794H41.4559C41.5303 11.8579 41.7823 12.3249 42.2121 12.6803C42.6502 13.0274 43.1915 13.201 43.8362 13.201C44.6213 13.201 45.2536 12.9365 45.733 12.4076L46.39 13.1762C46.0925 13.5233 45.7206 13.7878 45.2743 13.9696C44.8362 14.1515 44.3445 14.2424 43.799 14.2424C43.1047 14.2424 42.489 14.1019 41.9518 13.8209C41.4146 13.5316 40.9972 13.1307 40.6996 12.6183C40.4104 12.1059 40.2657 11.5273 40.2657 10.8827C40.2657 10.2463 40.4062 9.67187 40.6872 9.15944C40.9765 8.64701 41.3691 8.2503 41.865 7.96929C42.3691 7.68002 42.9353 7.53538 43.5634 7.53538C44.1916 7.53538 44.7495 7.68002 45.2371 7.96929C45.733 8.2503 46.1173 8.64701 46.39 9.15944C46.671 9.67187 46.8116 10.2587 46.8116 10.9199ZM43.5634 8.53957C42.9932 8.53957 42.5138 8.71313 42.1253 9.06026C41.7451 9.40739 41.522 9.86196 41.4559 10.424H45.671C45.6049 9.87022 45.3776 9.41979 44.9891 9.07266C44.6089 8.71727 44.1337 8.53957 43.5634 8.53957Z" fill="#ff8a00"/>
<path d="M54.2815 7.59737L51.4053 14.168H50.1903L47.3141 7.59737H48.5539L50.8102 12.8663L53.1161 7.59737H54.2815Z" fill="#ff8a00"/>
<path d="M58.07 11.1058L56.7063 12.3704V14.168H55.5162V4.96912H56.7063V10.8703L60.2892 7.59737H61.7273L58.9627 10.3124L62 14.168H60.5371L58.07 11.1058Z" fill="#ff8a00"/>
<path fill-rule="evenodd" clip-rule="evenodd" d="M10.6914 2.81676L9.8216 1.31793C9.58108 0.903477 9.04925 0.760976 8.63373 0.999644C8.21821 1.23831 8.07634 1.76777 8.31686 2.18222L9.18669 3.68106L10.6914 2.81676ZM8.18925 0.233745C7.47368 0.644756 7.15975 1.48256 7.38347 2.23956L2.70722 5.54811C2.69897 5.55394 2.69099 5.56001 2.68326 5.56629C2.53209 5.50609 2.36707 5.47297 2.19429 5.47297C1.46716 5.47297 0.877715 6.05939 0.877715 6.78277C0.877715 7.39649 1.30199 7.91162 1.87465 8.05371L4.77689 14.2049H2.6196C1.48362 14.2049 0.516527 14.928 0.153453 15.939C0.0541212 16.2156 0 16.5137 0 16.8245H0.885529H9.64705H10.5326C10.5326 16.5137 10.4785 16.2156 10.3791 15.939C10.0161 14.928 9.04896 14.2049 7.91298 14.2049H5.70934C5.70938 14.1415 5.69575 14.0771 5.6669 14.016L2.80241 7.94478C3.22343 7.72626 3.51086 7.28791 3.51086 6.78277C3.51086 6.56206 3.45599 6.35411 3.35907 6.17166L7.78922 3.03724L8.41881 4.12211L8.48396 4.23436C7.38564 5.32402 7.10469 7.04627 7.89419 8.45658C7.90329 8.47283 7.91253 8.48905 7.92192 8.50522L8.33829 9.22269L9.10617 8.78164L15.1716 5.29775L15.9395 4.85669L15.5232 4.13922C15.5138 4.12305 15.5043 4.10698 15.4947 4.09101C14.6618 2.70569 13.0221 2.08662 11.5245 2.488L11.4593 2.37571L10.5895 0.876876C10.1035 0.0394299 9.02886 -0.24851 8.18925 0.233745ZM7.91298 15.0905H2.6196C1.98541 15.0905 1.43074 15.4309 1.12837 15.939H9.40421C9.10184 15.4309 8.54716 15.0905 7.91298 15.0905ZM9.65999 4.44331L11.1182 3.60574C12.3742 2.8843 13.9774 3.30036 14.7267 4.53214L8.66219 8.01545C7.96457 6.75398 8.40395 5.16475 9.65999 4.44331ZM2.62533 6.78277C2.62533 7.01279 2.43666 7.20704 2.19429 7.20704C1.95192 7.20704 1.76324 7.01279 1.76324 6.78277C1.76324 6.55276 1.95192 6.3585 2.19429 6.3585C2.43666 6.3585 2.62533 6.55276 2.62533 6.78277Z" fill="#845927"/>
<path d="M13.659 6.16653C13.7743 6.36515 13.8491 6.58441 13.8792 6.81178C13.9093 7.03916 13.8941 7.27021 13.8344 7.49174C13.7747 7.71326 13.6718 7.92093 13.5315 8.10287C13.3911 8.28482 13.2161 8.43749 13.0165 8.55216C12.8169 8.66683 12.5965 8.74126 12.3679 8.77119C12.1394 8.80113 11.9071 8.78598 11.6844 8.72663C11.4618 8.66727 11.253 8.56486 11.0701 8.42525C10.8873 8.28563 10.7338 8.11155 10.6185 7.91293L12.1388 7.03973L13.659 6.16653Z" fill="#ff8a00"/>
</svg>
